<?xml version="1.0" standalone="no"?>
<!DOCTYPE svg PUBLIC "-//W3C//DTD SVG 20010904//EN"
 "http://www.w3.org/TR/2001/REC-SVG-20010904/DTD/svg10.dtd">
<svg version="1.0" xmlns="http://www.w3.org/2000/svg"
 width="512.000000pt" height="512.000000pt" viewBox="0 0 512.000000 512.000000"
 preserveAspectRatio="xMidYMid meet">
<metadata>
Created by potrace 1.11, written by Peter Selinger 2001-2013
</metadata>
<g transform="translate(0.000000,512.000000) scale(0.100000,-0.100000)"
fill="#000000" stroke="none">
<path d="M1625 5105 c-260 -51 -466 -131 -710 -277 -60 -36 -153 -96 -205
-133 -104 -74 -310 -242 -310 -254 0 -12 107 -189 172 -286 162 -239 336 -430
528 -582 8 -7 26 -21 40 -32 l25 -21 -45 -37 c-69 -57 -212 -204 -262 -269
-166 -216 -296 -503 -332 -734 -34 -213 -32 -463 4 -633 152 -717 699 -1232
1430 -1345 25 -4 133 -7 240 -6 239 1 330 16 557 96 366 129 708 424 900 776
98 179 169 397 191 587 12 101 8 414 -7 490 -51 270 -125 458 -259 660 -77
117 -106 153 -205 254 -103 105 -222 198 -355 278 l-33 20 108 81 c59 45 123
94 141 108 l32 27 39 -26 c22 -14 83 -62 138 -105 314 -254 555 -617 668
-1006 14 -49 27 -101 30 -115 3 -14 7 -37 10 -51 40 -175 51 -550 20 -670 -2
-8 -6 -37 -10 -63 -16 -132 -97 -386 -168 -531 -21 -45 -39 -82 -38 -83 2 -7
-128 -206 -181 -276 -131 -175 -371 -391 -555 -499 -159 -93 -382 -193 -476
-212 -12 -3 -47 -12 -77 -20 -48 -14 -81 -21 -200 -42 -102 -18 -390 -24 -495
-11 -98 12 -130 17 -155 22 -14 3 -41 8 -60 11 -64 11 -244 65 -335 101 -509
200 -923 615 -1130 1132 -58 146 -110 342 -121 461 -3 30 -9 73 -13 96 -9 47
-7 359 2 389 3 11 9 52 12 92 6 68 5 74 -19 98 -30 30 -76 33 -100 6 -37 -40
-51 -154 -50 -411 0 -191 6 -257 34 -400 87 -433 284 -803 595 -1116 216 -218
416 -353 715 -482 133 -58 373 -120 565 -146 132 -17 459 -13 580 8 123 21
139 24 225 47 41 11 82 21 90 23 35 9 216 80 288 113 150 71 345 195 487 313
67 55 236 232 297 311 169 217 289 446 369 706 16 53 31 105 34 117 32 158 42
218 51 322 14 147 8 418 -11 514 -3 14 -10 52 -16 85 -25 143 -75 306 -138
454 -17 41 -30 75 -29 77 2 1 55 21 118 44 387 142 670 364 784 615 63 140 89
345 65 520 -24 171 -100 407 -190 587 l-48 97 -73 -23 c-145 -46 -178 -59
-297 -116 -239 -116 -424 -262 -525 -413 -102 -154 -136 -263 -141 -457 -2
-74 0 -155 5 -180 5 -25 11 -64 15 -87 3 -23 12 -66 20 -95 30 -111 31 -107
-6 -63 -160 189 -317 332 -495 449 -70 47 -87 64 -129 132 -137 220 -288 409
-460 574 -236 227 -520 379 -780 419 -91 13 -301 11 -380 -4z"/>
</g>
</svg>
